<svg id="Logo" xmlns="http://www.w3.org/2000/svg" viewBox="0 0 543.26 128.19"><defs><style>.cls-1{fill:#fbb03b;}.cls-2{fill:#576f7f;}</style></defs><title>IES_InstutiteOfEducationSciences_RGB</title><path class="cls-1" d="M26.56,41v2.92h10v6.44h-10v3h11V60H18.42V34.4H37.36V41Z"/><path class="cls-1" d="M67.81,42.14H59.13c0-1.48-.86-2.27-2.52-2.27-1.51,0-2.3.61-2.3,1.59,0,1.18,1,1.51,4.18,2.26,5.14,1.26,9.72,2.81,9.72,8.5,0,5.25-4.18,8.39-11.38,8.39s-11.41-3.28-11.41-8.82h8.93c0,1.69.82,2.52,2.8,2.52,1.59,0,2.42-.65,2.42-1.62,0-1.3-1.08-1.62-4.11-2.42-5-1.36-9.47-2.77-9.47-8.2,0-5,3.93-8.25,11.13-8.25C63.67,33.82,67.81,36.63,67.81,42.14Z"/><rect class="cls-1" x="136.1" width="8.13" height="41"/><rect class="cls-1" x="122.95" y="21.09" width="8.13" height="22.53" transform="translate(-2.71 51.07) rotate(-22.5)"/><rect class="cls-1" x="110.68" y="25.82" width="8.13" height="25.7" transform="translate(6.26 92.46) rotate(-45)"/><rect class="cls-1" x="101.43" y="35.31" width="8.13" height="28.85" transform="translate(19.18 128.17) rotate(-67.5)"/><rect class="cls-1" x="96.2" y="47.29" width="8.13" height="33.6" transform="translate(36.17 164.36) rotate(-90)"/><rect class="cls-1" x="99.09" y="62.46" width="8.13" height="33.93" transform="translate(69.25 205.12) rotate(-112.5)"/><rect class="cls-1" x="106.97" y="75.12" width="8.13" height="36.21" transform="translate(123.62 237.66) rotate(-135)"/><rect class="cls-1" x="119.78" y="83.94" width="8.13" height="39.11" transform="translate(198.65 246.51) rotate(-157.5)"/><rect class="cls-1" x="136.1" y="87.19" width="8.13" height="41" transform="translate(280.32 215.38) rotate(-180)"/><rect class="cls-1" x="149.25" y="84.57" width="8.13" height="22.53" transform="translate(331.63 125.71) rotate(157.5)"/><rect class="cls-1" x="161.52" y="76.66" width="8.13" height="25.7" transform="translate(345.96 35.72) rotate(135)"/><rect class="cls-1" x="170.76" y="64.03" width="8.13" height="28.85" transform="translate(314.21 -53.04) rotate(112.5)"/><rect class="cls-1" x="176" y="47.29" width="8.13" height="33.6" transform="translate(244.15 -115.97) rotate(90)"/><rect class="cls-1" x="173.11" y="31.8" width="8.13" height="33.93" transform="translate(154.42 -133.58) rotate(67.5)"/><rect class="cls-1" x="165.23" y="16.85" width="8.13" height="36.21" transform="translate(74.31 -109.47) rotate(45)"/><rect class="cls-1" x="152.42" y="5.13" width="8.13" height="39.11" transform="translate(21.36 -58) rotate(22.5)"/><rect class="cls-1" y="34.4" width="8.13" height="25.63" transform="translate(8.13 94.43) rotate(-180)"/><path class="cls-2" d="M219.41,60V34.4h5.29V60Z"/><path class="cls-2" d="M246.62,48.8V60h-5V49.3c0-2.77-1.22-4-3.2-4s-3.6,1.66-3.6,5V60h-5V41.74h4.71v2.31h.08a6.49,6.49,0,0,1,5.36-2.74C244,41.31,246.62,43.83,246.62,48.8Z"/><path class="cls-2" d="M265.45,47.36h-4.82c0-1.87-1.08-2.67-2.88-2.67-1.62,0-2.49.65-2.49,1.7,0,1.29,1.15,1.62,3.93,2.34,3.27.86,6.87,1.69,6.87,6.15,0,3.42-3.09,5.73-8.06,5.73s-8.21-2.09-8.21-6.52h5.11c0,1.84,1.12,2.88,3.21,2.88,1.76,0,2.66-.68,2.66-1.76,0-1.59-1.37-1.91-4.21-2.67-3.06-.79-6.34-1.51-6.34-5.76,0-3.27,3-5.61,7.56-5.61C262.57,41.17,265.45,43.29,265.45,47.36Z"/><path class="cls-2" d="M279,56.07v3.85a10,10,0,0,1-2.67.36c-4.21,0-6.05-1.69-6.05-5.94V45.49h-2.95V41.74h2.95V37h5v4.75h3.5v3.75h-3.5v7.95c0,2,.65,2.81,2.38,2.81A4.48,4.48,0,0,0,279,56.07Z"/><path class="cls-2" d="M282,38.72V34.4h5v4.32ZM282,60V41.74h5V60Z"/><path class="cls-2" d="M301.05,56.07v3.85a10,10,0,0,1-2.66.36c-4.21,0-6.05-1.69-6.05-5.94V45.49h-2.95V41.74h2.95V37h5v4.75h3.49v3.75h-3.49v7.95c0,2,.65,2.81,2.38,2.81A4.41,4.41,0,0,0,301.05,56.07Z"/><path class="cls-2" d="M303.86,53V41.74h5V52.47c0,2.77,1.22,4,3.2,4s3.6-1.65,3.6-5V41.74h5V60H316v-2.3H316a6.52,6.52,0,0,1-5.37,2.73C306.49,60.46,303.86,57.94,303.86,53Z"/><path class="cls-2" d="M334.78,56.07v3.85a10,10,0,0,1-2.66.36c-4.21,0-6.05-1.69-6.05-5.94V45.49h-2.95V41.74h2.95V37h5v4.75h3.49v3.75h-3.49v7.95c0,2,.65,2.81,2.38,2.81A4.36,4.36,0,0,0,334.78,56.07Z"/><path class="cls-2" d="M348.79,54.49h5.15c-.72,3.34-3.89,6.12-8.75,6.12-5.76,0-9.11-4-9.11-9.87,0-5.4,3.35-9.57,9.07-9.57a8.44,8.44,0,0,1,8.46,6.08,15,15,0,0,1,.58,4.68H341.05c.14,3.78,2,5.11,4.14,5.11C347.2,57,348.54,56,348.79,54.49Zm-7.63-5.73h8c-.33-2.77-2-4-4-4S341.55,46,341.16,48.76Z"/><path class="cls-2" d="M383,50.89c0,5.94-3.64,9.72-9.36,9.72s-9.36-3.78-9.36-9.72,3.63-9.72,9.36-9.72S383,45,383,50.89Zm-13.43,0c0,3.56,1.58,5.83,4.07,5.83s4.06-2.27,4.06-5.83-1.58-5.84-4.06-5.84S369.56,47.32,369.56,50.89Z"/><path class="cls-2" d="M392.24,40.7v1h3.45v3.75h-3.45V60h-5V45.49h-3V41.74h3V40.09c0-4,2.12-6,6.05-6a11.65,11.65,0,0,1,2.48.29V38a3.25,3.25,0,0,0-.9-.11C393.14,37.85,392.24,38.61,392.24,40.7Z"/><path class="cls-2" d="M224.7,74.6v5.79h11.59v4.5H224.7v6.27h12.74v4.53h-18V70.06h17.71V74.6Z"/><path class="cls-2" d="M252.78,95.69V93.28h-.07a6.05,6.05,0,0,1-5.26,2.88c-4.61,0-7.6-3.78-7.6-9.61s3-9.61,7.53-9.61a6.06,6.06,0,0,1,5.18,2.66h.07V70.06h5V95.69Zm-7.67-9.14c0,3.49,1.55,5.76,4,5.76s3.82-2.13,3.82-5.76-1.55-5.76-3.82-5.76S245.11,83.06,245.11,86.55Z"/><path class="cls-2" d="M262,88.64V77.4h5V88.13c0,2.77,1.22,4,3.2,4s3.6-1.65,3.6-5V77.4h5V95.69H274.2v-2.3h-.07a6.52,6.52,0,0,1-5.37,2.73C264.66,96.12,262,93.6,262,88.64Z"/><path class="cls-2" d="M300.12,84.21h-5.26c-.18-2.16-1.47-3.49-3.42-3.49-2.45,0-3.92,2.23-3.92,5.83s1.47,5.83,3.92,5.83c1.95,0,3.24-1.48,3.39-3.85h5.29c-.4,4.64-3.71,7.74-8.64,7.74-5.58,0-9.22-3.82-9.22-9.72s3.64-9.72,9.22-9.72C296.41,76.83,299.72,79.92,300.12,84.21Z"/><path class="cls-2" d="M318.33,84.06v6.63a18.85,18.85,0,0,0,.51,5H314.3a10.43,10.43,0,0,1-.25-2.45H314A6.86,6.86,0,0,1,308,96.12c-3.89,0-6.23-2.37-6.23-5.54,0-3,1.8-5,7.09-5.83,1.37-.22,3.42-.43,4.57-.51V83.6c0-2.31-1.22-3.24-3-3.24a2.72,2.72,0,0,0-3,2.77h-4.89c.18-3.49,2.7-6.3,7.92-6.3S318.33,79.28,318.33,84.06Zm-4.86,3.24c-1.08.08-2.59.22-3.67.4-2.09.36-2.95,1-2.95,2.52s.94,2.3,2.7,2.3a4.12,4.12,0,0,0,2.88-1c.86-.86,1-1.84,1-3.49Z"/><path class="cls-2" d="M331.8,91.73v3.85a10,10,0,0,1-2.67.36c-4.21,0-6-1.69-6-5.94V81.15h-3V77.4h3V72.65h5V77.4h3.49v3.75h-3.49V89.1c0,2,.64,2.81,2.37,2.81A4.48,4.48,0,0,0,331.8,91.73Z"/><path class="cls-2" d="M334.78,74.38V70.06h5v4.32Zm0,21.31V77.4h5V95.69Z"/><path class="cls-2" d="M361.89,86.55c0,5.94-3.63,9.72-9.36,9.72s-9.36-3.78-9.36-9.72,3.64-9.72,9.36-9.72S361.89,80.61,361.89,86.55Zm-13.43,0c0,3.56,1.59,5.83,4.07,5.83s4.07-2.27,4.07-5.83-1.58-5.83-4.07-5.83S348.46,83,348.46,86.55Z"/><path class="cls-2" d="M382.12,84.46V95.69h-5V85c0-2.77-1.22-4-3.2-4s-3.6,1.66-3.6,5v9.79h-5V77.4H370v2.31H370A6.51,6.51,0,0,1,375.39,77C379.5,77,382.12,79.49,382.12,84.46Z"/><path class="cls-2" d="M412.51,77.91h-5.37c0-2.67-1.54-4.21-4.46-4.21-2.34,0-3.92,1.15-3.92,2.8,0,2,1.54,2.63,5.58,3.64,4.82,1.19,9,2.45,9,8,0,4.86-4,8.1-10,8.1-6.37,0-10.37-3.17-10.37-9h5.47c0,3.09,1.69,4.71,5,4.71,2.7,0,4.43-1.26,4.43-3.27,0-2.27-1.66-2.7-5.29-3.64-4.83-1.22-9.22-2.37-9.22-8,0-4.5,3.85-7.6,9.47-7.6C409.2,69.48,412.51,72.4,412.51,77.91Z"/><path class="cls-2" d="M433.39,84.21h-5.26c-.18-2.16-1.48-3.49-3.42-3.49-2.45,0-3.92,2.23-3.92,5.83s1.47,5.83,3.92,5.83c1.94,0,3.24-1.48,3.38-3.85h5.3c-.4,4.64-3.71,7.74-8.64,7.74-5.58,0-9.22-3.82-9.22-9.72s3.64-9.72,9.22-9.72C429.68,76.83,433,79.92,433.39,84.21Z"/><path class="cls-2" d="M436.59,74.38V70.06h5v4.32Zm0,21.31V77.4h5V95.69Z"/><path class="cls-2" d="M457.69,90.15h5.14c-.72,3.35-3.88,6.12-8.74,6.12-5.76,0-9.11-4-9.11-9.87,0-5.4,3.35-9.57,9.07-9.57a8.44,8.44,0,0,1,8.46,6.08,15.06,15.06,0,0,1,.58,4.68H450c.14,3.78,2,5.11,4.14,5.11S457.43,91.62,457.69,90.15Zm-7.64-5.73h8c-.33-2.77-2-4-4-4S450.45,81.65,450.05,84.42Z"/><path class="cls-2" d="M483.32,84.46V95.69h-5V85c0-2.77-1.23-4-3.21-4s-3.6,1.66-3.6,5v9.79h-5V77.4h4.72v2.31h.07A6.52,6.52,0,0,1,476.59,77C480.69,77,483.32,79.49,483.32,84.46Z"/><path class="cls-2" d="M504.34,84.21h-5.26c-.17-2.16-1.47-3.49-3.41-3.49-2.45,0-3.93,2.23-3.93,5.83s1.48,5.83,3.93,5.83c1.94,0,3.24-1.48,3.38-3.85h5.29c-.39,4.64-3.71,7.74-8.64,7.74-5.58,0-9.21-3.82-9.21-9.72s3.63-9.72,9.21-9.72C500.63,76.83,504,79.92,504.34,84.21Z"/><path class="cls-2" d="M519.28,90.15h5.15c-.72,3.35-3.89,6.12-8.75,6.12-5.76,0-9.11-4-9.11-9.87,0-5.4,3.35-9.57,9.07-9.57a8.43,8.43,0,0,1,8.46,6.08,15.06,15.06,0,0,1,.58,4.68H511.54c.14,3.78,2,5.11,4.14,5.11S519,91.62,519.28,90.15Zm-7.63-5.73h8c-.32-2.77-2-4-4-4S512,81.65,511.65,84.42Z"/><path class="cls-2" d="M542.64,83h-4.82c0-1.87-1.08-2.66-2.88-2.66-1.62,0-2.48.64-2.48,1.69,0,1.29,1.15,1.62,3.92,2.34,3.28.86,6.88,1.69,6.88,6.15,0,3.42-3.1,5.73-8.07,5.73S527,94.18,527,89.75h5.12c0,1.84,1.11,2.88,3.2,2.88,1.76,0,2.66-.68,2.66-1.76,0-1.59-1.36-1.91-4.21-2.67-3.06-.79-6.33-1.51-6.33-5.76,0-3.27,3-5.61,7.56-5.61C539.76,76.83,542.64,79,542.64,83Z"/></svg>